# xmcd
#
# Track frame offsets:
#	150
#	15067
#	30187
#	42767
#	55705
#	70992
#	84607
#	100805
#	114675
#	126072
#	138212
#	157890
#	176185
#	188177
#	202395
#	220062
#
# Disc length: 3099 seconds
#
# Revision: 0
# Processed by: cddbd v1.5.2PL0 Copyright (c) Steve Scherf et al.
# Submitted via: EasyCDDAExtractor 11.1.0.1
#
DISCID=d20c1910
DTITLE=Various Artist - Nashville music express
DYEAR=1900
DGENRE=country
TTITLE0=Marcia Lindsay - Angel of the morning
TTITLE1=Steve Bart - Anybody wanna dance
TTITLE2=Jon Casey - Bayou country
TTITLE3=Bill E Penn - Be bop a lula
TTITLE4=Billy Joe Burnette - Hurt
TTITLE5=Jerry Adams - I don't really want to know 
TTITLE6=Southband - I know where you're coming from
TTITLE7=Tucker Barnes - I wanna know
TTITLE8=Marcia Lindsay - Midnight rider
TTITLE9=Scooter Lee - Moving on up
TTITLE10=Kenny Isaacs - Pieces of you
TTITLE11=Scooter Lee - Ribbon of highway
TTITLE12=Elvis Wade - Shame on you
TTITLE13=Troy Shondell - Slow down
TTITLE14=Tennessee Lee - The legend of E.T.
TTITLE15=Hoyt Axton - Wecould've been sweethearts
EXTD=
EXTT0=
EXTT1=
EXTT2=
EXTT3=
EXTT4=
EXTT5=
EXTT6=
EXTT7=
EXTT8=
EXTT9=
EXTT10=
EXTT11=
EXTT12=
EXTT13=
EXTT14=
EXTT15=
PLAYORDER=
